#define arbutton_width 16
#define arbutton_height 16
static char arbutton_bits[] = {
   0x01, 0xc0, 0xfe, 0xbf, 0xf2, 0x3f, 0xc2, 0x3f, 0x02, 0x3f, 0x02, 0x3c,
   0x02, 0x30, 0x02, 0x20, 0x02, 0x30, 0x02, 0x3c, 0x02, 0x3f, 0xc2, 0x3f,
   0xf2, 0x3f, 0xfe, 0x1f, 0x01, 0x80, 0x03, 0xc0};
