#define ardown_width 16
#define ardown_height 16
static char ardown_bits[] = {
   0xff, 0xff, 0x03, 0x80, 0xfd, 0x7f, 0xe5, 0x7f, 0x85, 0x7f, 0x05, 0x7e,
   0x05, 0x78, 0x05, 0x60, 0x05, 0x40, 0x05, 0x60, 0x05, 0x78, 0x05, 0x7e,
   0x85, 0x7f, 0xe5, 0x7f, 0xfd, 0x7f, 0x03, 0x80};
